<svg width="93" height="27" viewBox="0 0 93 27" fill="none" xmlns="http://www.w3.org/2000/svg">
    <path d="M15.488 4.738C15.38 4.918 15.26 5.056 15.128 5.152C15.008 5.236 14.858 5.278 14.678 5.278C14.474 5.278 14.234 5.176 13.958 4.972C13.682 4.768 13.334 4.546 12.914 4.306C12.506 4.054 12.008 3.826 11.42 3.622C10.844 3.418 10.142 3.316 9.314 3.316C8.534 3.316 7.844 3.424 7.244 3.64C6.656 3.844 6.158 4.126 5.75 4.486C5.354 4.846 5.054 5.272 4.85 5.764C4.646 6.244 4.544 6.766 4.544 7.33C4.544 8.05 4.718 8.65 5.066 9.13C5.426 9.598 5.894 10 6.47 10.336C7.058 10.672 7.718 10.966 8.45 11.218C9.194 11.458 9.95 11.71 10.718 11.974C11.498 12.238 12.254 12.538 12.986 12.874C13.73 13.198 14.39 13.612 14.966 14.116C15.554 14.62 16.022 15.238 16.37 15.97C16.73 16.702 16.91 17.602 16.91 18.67C16.91 19.798 16.718 20.86 16.334 21.856C15.95 22.84 15.386 23.698 14.642 24.43C13.91 25.162 13.004 25.738 11.924 26.158C10.856 26.578 9.638 26.788 8.27 26.788C6.59 26.788 5.066 26.488 3.698 25.888C2.33 25.276 1.16 24.454 0.188 23.422L1.196 21.766C1.292 21.634 1.406 21.526 1.538 21.442C1.682 21.346 1.838 21.298 2.006 21.298C2.162 21.298 2.336 21.364 2.528 21.496C2.732 21.616 2.96 21.772 3.212 21.964C3.464 22.156 3.752 22.366 4.076 22.594C4.4 22.822 4.766 23.032 5.174 23.224C5.594 23.416 6.068 23.578 6.596 23.71C7.124 23.83 7.718 23.89 8.378 23.89C9.206 23.89 9.944 23.776 10.592 23.548C11.24 23.32 11.786 23.002 12.23 22.594C12.686 22.174 13.034 21.676 13.274 21.1C13.514 20.524 13.634 19.882 13.634 19.174C13.634 18.394 13.454 17.758 13.094 17.266C12.746 16.762 12.284 16.342 11.708 16.006C11.132 15.67 10.472 15.388 9.728 15.16C8.984 14.92 8.228 14.68 7.46 14.44C6.692 14.188 5.936 13.9 5.192 13.576C4.448 13.252 3.788 12.832 3.212 12.316C2.636 11.8 2.168 11.158 1.808 10.39C1.46 9.61 1.286 8.65 1.286 7.51C1.286 6.598 1.46 5.716 1.808 4.864C2.168 4.012 2.684 3.256 3.356 2.596C4.04 1.936 4.874 1.408 5.858 1.012C6.854 0.615999 7.994 0.417998 9.278 0.417998C10.718 0.417998 12.026 0.645998 13.202 1.102C14.39 1.558 15.434 2.218 16.334 3.082L15.488 4.738ZM27.1149 12.01H28.4289C28.8849 12.01 29.2509 11.956 29.5269 11.848C29.8029 11.728 30.0549 11.53 30.2829 11.254L38.8689 1.534C39.1089 1.222 39.3609 1.006 39.6249 0.885998C39.8889 0.765998 40.2129 0.705998 40.5969 0.705998H43.5489L33.7209 11.812C33.4809 12.1 33.2469 12.34 33.0189 12.532C32.8029 12.712 32.5689 12.862 32.3169 12.982C32.6409 13.09 32.9349 13.252 33.1989 13.468C33.4629 13.672 33.7209 13.942 33.9729 14.278L44.2329 26.5H41.2089C40.9809 26.5 40.7829 26.488 40.6149 26.464C40.4589 26.428 40.3209 26.38 40.2009 26.32C40.0809 26.248 39.9729 26.17 39.8769 26.086C39.7929 25.99 39.7089 25.882 39.6249 25.762L30.7329 15.52C30.4929 15.22 30.2349 15.01 29.9589 14.89C29.6829 14.758 29.2629 14.692 28.6989 14.692H27.1149V26.5H23.6409V0.705998H27.1149V12.01ZM47.1781 14.35H56.0701V17.068H47.1781V14.35ZM66.8735 26.5H63.3815V0.705998H66.8735V26.5ZM92.7133 3.64H84.3613V26.5H80.8873V3.64H72.5173V0.705998H92.7133V3.64Z" fill="#34A0A4"/>
</svg>